<svg xmlns="http://www.w3.org/2000/svg" width="34.065" height="32.657" viewBox="0 0 34.065 32.657"><defs><style>.a{fill:none;stroke:#abb4d4;stroke-linecap:round;stroke-linejoin:round;stroke-width:2px;}</style></defs><g transform="translate(1.032 1)"><path class="a" d="M17.033,3.42a1.714,1.714,0,0,1,3.259,0l2.6,8.009a1.714,1.714,0,0,0,1.628,1.182h8.422a1.715,1.715,0,0,1,1.008,3.1L27.14,20.662a1.714,1.714,0,0,0-.622,1.916l2.6,8.009A1.713,1.713,0,0,1,26.484,32.5l-6.813-4.949a1.714,1.714,0,0,0-2.015,0L10.842,32.5a1.713,1.713,0,0,1-2.636-1.916l2.6-8.009a1.714,1.714,0,0,0-.622-1.916L3.372,15.714a1.715,1.715,0,0,1,1.008-3.1H12.8a1.714,1.714,0,0,0,1.63-1.182l2.6-8.009Z" transform="translate(-2.663 -2.236)"/></g></svg>