<svg xmlns="http://www.w3.org/2000/svg" width="24.828" height="24" viewBox="0 0 27.828 27"><defs><style>.a{fill:none;stroke:#5082cc;stroke-linecap:round;stroke-linejoin:round;stroke-width:2px;}</style></defs><g transform="translate(1.414 1)"><path class="a" d="M3,15.5l2.778-2.778m0,0L15.5,3l9.722,9.722m-19.444,0V26.611A1.389,1.389,0,0,0,7.167,28h4.167M25.222,12.722,28,15.5m-2.778-2.778V26.611A1.389,1.389,0,0,1,23.833,28H19.667m-8.333,0a1.389,1.389,0,0,0,1.389-1.389V21.056a1.389,1.389,0,0,1,1.389-1.389h2.778a1.389,1.389,0,0,1,1.389,1.389v5.556A1.389,1.389,0,0,0,19.667,28m-8.333,0h8.333" transform="translate(-3 -3)"/></g></svg>