<?xml version="1.0" encoding="utf-8"?>
<!-- Generator: Adobe Illustrator 24.3.0, SVG Export Plug-In . SVG Version: 6.00 Build 0)  -->
<svg version="1.1" id="Layer_1" xmlns="http://www.w3.org/2000/svg" xmlns:xlink="http://www.w3.org/1999/xlink" x="0px" y="0px"
	 viewBox="0 0 500 500" style="enable-background:new 0 0 500 500;" xml:space="preserve">
<style type="text/css">
	.st0{fill:url(#SVGID_1_);}
	.st1{fill:url(#SVGID_2_);}
	.st2{fill:url(#SVGID_3_);}
	.st3{fill:url(#SVGID_4_);}
</style>
<g>
	<linearGradient id="SVGID_1_" gradientUnits="userSpaceOnUse" x1="86.5647" y1="-130.0133" x2="503.5647" y2="429.9867">
		<stop  offset="0" style="stop-color:#16D0CC"/>
		<stop  offset="1" style="stop-color:#682CB5"/>
	</linearGradient>
	<path class="st0" d="M420,0c8.02,2.01,16.32,3.26,24.01,6.16c24.44,9.21,41.08,26.54,50.35,50.89c0.75,1.97,0.81,4.6,0.19,6.63
		c-26.34,86.47-52.79,172.92-79.24,259.36c-2.15,7.03-6.16,10.47-12.11,10.73c-6.91,0.29-10.78-2.37-13.91-9.79
		c-31.38-74.3-62.77-148.6-94.08-222.94c-2.66-6.31-5.84-11.69-13.49-12.27c-7.72-0.59-12.68,2.64-15.81,10.26
		c-12.41,30.32-24.8,60.64-37.2,90.96c-17.69,43.25-35.39,86.5-53.1,129.74c-3.32,8.11-8.97,11.62-16.2,9.86
		c-5.8-1.41-8.67-5.57-10.12-11.19c-7.56-29.44-15.25-58.85-22.87-88.28C107.23,155.96,88.05,81.82,68.87,7.68
		c-0.41-1.59-0.75-3.21-1.18-5.04C71.97,1.72,75.98,0.86,80,0C193.33,0,306.67,0,420,0z"/>
	<linearGradient id="SVGID_2_" gradientUnits="userSpaceOnUse" x1="-65.2862" y1="-16.9387" x2="351.7138" y2="543.0613">
		<stop  offset="0" style="stop-color:#16D0CC"/>
		<stop  offset="1" style="stop-color:#682CB5"/>
	</linearGradient>
	<path class="st1" d="M165,500c5.42-12.85,10.74-25.74,16.28-38.53c29.2-67.4,58.44-134.78,87.69-202.16
		c3.15-7.25,7.58-9.93,14.76-9.08c6.14,0.73,8.88,5.07,11.1,10.2c18.31,42.24,36.68,84.45,55.04,126.66
		C366.24,424.73,382.62,462.36,399,500C321,500,243,500,165,500z"/>
	<linearGradient id="SVGID_3_" gradientUnits="userSpaceOnUse" x1="-152.4733" y1="47.9846" x2="264.5267" y2="607.9846">
		<stop  offset="0" style="stop-color:#16D0CC"/>
		<stop  offset="1" style="stop-color:#682CB5"/>
	</linearGradient>
	<path class="st2" d="M0,80c0.78-3.72,1.57-7.44,2.62-12.44c3.08,9.83,5.84,18.57,8.56,27.33
		c41.63,133.75,83.25,267.5,124.87,401.25c0.39,1.26,0.64,2.57,0.95,3.86c-19,0-38,0-57,0c-1.26-0.37-2.5-0.89-3.79-1.08
		c-35.33-5.23-59.03-24.86-71.3-58.19C2.47,434.12,1.6,426.93,0,420C0,306.67,0,193.33,0,80z"/>
	<linearGradient id="SVGID_4_" gradientUnits="userSpaceOnUse" x1="101.3916" y1="-141.0541" x2="518.3917" y2="418.9459">
		<stop  offset="0" style="stop-color:#16D0CC"/>
		<stop  offset="1" style="stop-color:#682CB5"/>
	</linearGradient>
	<path class="st3" d="M500,420c-2.06,8.18-3.23,16.71-6.33,24.47c-12.13,30.34-34.91,47.92-67.78,54.5
		c1.94-8.35,3.65-15.88,5.45-23.38c22.67-94.75,45.35-189.5,68.04-284.24c0.11-0.47,0.41-0.9,0.62-1.34
		C500,266.67,500,343.33,500,420z"/>
</g>
</svg>
