<svg xmlns="http://www.w3.org/2000/svg" width="24" height="24" viewBox="0 0 34 34"><defs><style>.a{fill:none;stroke:#abb4d4;stroke-linecap:round;stroke-linejoin:round;stroke-width:2px;}</style></defs><g transform="translate(-2 -2)"><path class="a" d="M16.022,5.341a3.064,3.064,0,0,1,5.956,0,3.065,3.065,0,0,0,4.574,1.9,3.066,3.066,0,0,1,4.213,4.213,3.065,3.065,0,0,0,1.893,4.572,3.064,3.064,0,0,1,0,5.956,3.065,3.065,0,0,0-1.9,4.574,3.066,3.066,0,0,1-4.213,4.213,3.065,3.065,0,0,0-4.572,1.893,3.064,3.064,0,0,1-5.956,0,3.065,3.065,0,0,0-4.574-1.9A3.066,3.066,0,0,1,7.235,26.55a3.065,3.065,0,0,0-1.893-4.572,3.064,3.064,0,0,1,0-5.956,3.065,3.065,0,0,0,1.9-4.574A3.066,3.066,0,0,1,11.45,7.235a3.064,3.064,0,0,0,4.572-1.893Z"/><path class="a" d="M15,12a3,3,0,1,1-3-3A3,3,0,0,1,15,12Z" transform="translate(7 7)"/></g></svg>