<svg xmlns="http://www.w3.org/2000/svg" width="20" height="20" viewBox="0 0 20 20">
  <g id="Component_7_8" data-name="Component 7 – 8" transform="translate(1 1)">
    <path id="Path_8" data-name="Path 8" d="M11,4a2,2,0,0,1,4,0V5a1,1,0,0,0,1,1h3a1,1,0,0,1,1,1v3a1,1,0,0,1-1,1H18a2,2,0,0,0,0,4h1a1,1,0,0,1,1,1v3a1,1,0,0,1-1,1H16a1,1,0,0,1-1-1V18a2,2,0,0,0-4,0v1a1,1,0,0,1-1,1H7a1,1,0,0,1-1-1V16a1,1,0,0,0-1-1H4a2,2,0,0,1,0-4H5a1,1,0,0,0,1-1V7A1,1,0,0,1,7,6h3a1,1,0,0,0,1-1Z" transform="translate(-2 -2)" fill="none" stroke="#848484" stroke-linecap="round" stroke-linejoin="round" stroke-width="2"/>
  </g>
</svg>
