<svg xmlns="http://www.w3.org/2000/svg" width="121" height="120" viewBox="0 0 151 150"><defs><style>.a{fill:#d2e4ff;}.b{fill:none;stroke:rgb(26, 189, 196);stroke-linecap:round;stroke-linejoin:round;stroke-width:5px;}</style></defs><rect class="a" width="151" height="150" rx="75"/><path class="b" d="M68.014,53.241V82.786M53.241,68.014H82.786M13.848,33.545H23.7A9.848,9.848,0,0,0,33.545,23.7V13.848A9.848,9.848,0,0,0,23.7,4H13.848A9.848,9.848,0,0,0,4,13.848V23.7A9.848,9.848,0,0,0,13.848,33.545Zm49.241,0h9.848A9.848,9.848,0,0,0,82.786,23.7V13.848A9.848,9.848,0,0,0,72.938,4H63.09a9.848,9.848,0,0,0-9.848,9.848V23.7A9.848,9.848,0,0,0,63.09,33.545ZM13.848,82.786H23.7a9.848,9.848,0,0,0,9.848-9.848V63.09A9.848,9.848,0,0,0,23.7,53.241H13.848A9.848,9.848,0,0,0,4,63.09v9.848A9.848,9.848,0,0,0,13.848,82.786Z" transform="translate(31.529 31.529)"/></svg>