<svg xmlns="http://www.w3.org/2000/svg" width="21.037" height="20.158" viewBox="0 0 21.037 20.158">
  <g id="Component_5_2" data-name="Component 5 – 2" transform="translate(0.519 0.5)">
    <path id="Path_6" data-name="Path 6" d="M11.645,2.976a1.071,1.071,0,0,1,2.037,0l1.627,5.006a1.071,1.071,0,0,0,1.017.739H21.59a1.072,1.072,0,0,1,.63,1.939l-4.258,3.093a1.071,1.071,0,0,0-.389,1.2L19.2,19.956a1.07,1.07,0,0,1-1.647,1.2L13.293,18.06a1.071,1.071,0,0,0-1.26,0L7.775,21.153a1.07,1.07,0,0,1-1.647-1.2L7.754,14.95a1.071,1.071,0,0,0-.389-1.2L3.106,10.66a1.072,1.072,0,0,1,.63-1.939H9a1.071,1.071,0,0,0,1.019-.739l1.627-5.006Z" transform="translate(-2.663 -2.236)" fill="none" stroke="#abb4d4" stroke-linecap="round" stroke-linejoin="round" stroke-width="1"/>
  </g>
</svg>
